<svg xmlns="http://www.w3.org/2000/svg" xmlns:xlink="http://www.w3.org/1999/xlink" width="200" zoomAndPan="magnify" viewBox="0 0 150 149.999998" height="200" preserveAspectRatio="xMidYMid meet" version="1.0"><defs><clipPath id="2c00fefce5"><path d="M 13.863281 10.730469 L 136.113281 10.730469 L 136.113281 138.980469 L 13.863281 138.980469 Z M 13.863281 10.730469 " clip-rule="nonzero"/></clipPath></defs><path fill="#ff66c4" d="M 74.992188 42.476562 C 61.488281 42.476562 50.539062 53.949219 50.539062 68.101562 C 50.539062 82.257812 61.488281 93.730469 74.992188 93.730469 C 88.496094 93.730469 99.445312 82.257812 99.445312 68.101562 C 99.445312 53.949219 88.496094 42.476562 74.992188 42.476562 " fill-opacity="1" fill-rule="nonzero"/><g clip-path="url(#2c00fefce5)"><path fill="#ff66c4" d="M 115.601562 119.089844 C 110.1875 105.894531 98.816406 97.644531 74.957031 97.644531 C 51.125 97.644531 39.757812 105.875 34.332031 119.035156 C 23.292969 107.871094 16.425781 92.203125 16.425781 74.855469 C 16.425781 40.953125 42.648438 13.46875 74.992188 13.46875 C 107.339844 13.46875 133.558594 40.953125 133.558594 74.855469 C 133.558594 92.230469 126.671875 107.921875 115.601562 119.089844 Z M 74.992188 10.785156 C 41.230469 10.785156 13.863281 39.46875 13.863281 74.855469 C 13.863281 93.363281 21.351562 110.039062 33.324219 121.734375 C 44.242188 132.402344 58.890625 138.925781 74.992188 138.925781 C 91.066406 138.925781 105.691406 132.421875 116.605469 121.789062 C 128.609375 110.089844 136.121094 93.390625 136.121094 74.855469 C 136.121094 39.46875 108.753906 10.785156 74.992188 10.785156 " fill-opacity="1" fill-rule="nonzero"/></g></svg>